<svg width="50" height="50" viewBox="0 0 50 50" fill="none" xmlns="http://www.w3.org/2000/svg">
<!--   skills-->
    <g id="code">
        <path fill-rule="evenodd" clip-rule="evenodd" d="M18.3125 42.0645L27.2623 6.6875L31.4375 7.87241L22.4878 43.3125L18.3125 42.0645Z" fill="#7572D5"/>
        <path fill-rule="evenodd" clip-rule="evenodd" d="M13.5025 12.6875L16.5625 15.9278L7.99501 25.0001L16.5625 34.0721L13.5025 37.3125L1.875 25.0001L13.5025 12.6875Z" fill="#7572D5"/>
        <path fill-rule="evenodd" clip-rule="evenodd" d="M36.4976 12.6875L33.4375 15.9278L42.0051 25.0001L33.4375 34.0721L36.4976 37.3125L48.125 25.0001L36.4976 12.6875Z" fill="#7572D5"/>

    </g>
    <g id="css">
        <path d="M38.0508 10.8437L12.946 10.8377L13.3515 15.7547L32.6381 15.7577L32.1519 20.8502H19.5035L19.9608 25.6742H31.7358L31.0392 32.2806L25.4969 33.7886L19.8663 32.2701L19.508 28.3134H14.5359L15.0877 35.5411L25.4969 38.7341L35.7309 35.8652L38.0493 10.8452L38.0508 10.8437ZM5.49844 2.56873H45.4984L41.86 42.9999L25.4542 47.5687L9.13993 42.9968L5.49844 2.56873Z" fill="#7572D5"/>

    </g>
    <g id="react">
        <path d="M45.8125 21C45.8125 18.0833 42.6875 15.375 37.4792 13.5L36.5417 13.1875V12.7708C37.6875 7.04164 36.8542 2.7708 34.25 1.2083C31.6458 -0.354197 27.7917 1.10414 23.625 4.74997L23 5.37497L22.7917 5.16664H22.5833C18.3125 1.2083 14.1458 -0.145864 11.5417 1.31247C8.9375 2.7708 8.20833 6.8333 9.25 12.1458C9.35958 12.4838 9.4295 12.8333 9.45833 13.1875L8.3125 13.6041C3.20833 15.375 0.1875 18.0833 0.1875 21C0.1875 23.9166 3.52083 26.8333 8.72917 28.7083L9.45833 28.9166C9.32964 29.2854 9.25935 29.672 9.25 30.0625C8.20833 35.2708 9.14583 39.2291 11.5417 40.6875C13.9375 42.1458 18.3125 40.7916 22.4792 37.1458L23.1042 36.625L23.9375 37.4583C26.8542 39.9583 29.7708 41.3125 32.0625 41.3125C32.8708 41.3309 33.6671 41.1137 34.3542 40.6875C36.9583 39.2291 37.8958 34.9583 36.75 29.5416V29.3333C36.705 29.1619 36.6702 28.988 36.6458 28.8125H36.9583C42.4792 26.8333 45.8125 24.0208 45.8125 21ZM42.7917 21C42.7917 22.25 40.5 24.4375 36.0208 25.8958H35.8125C35.2664 24.2202 34.6051 22.5843 33.8333 21C34.5625 19.3333 35.1875 17.6666 35.7083 16.1041L36.5417 16.3125C40.7083 17.7708 42.7917 19.75 42.7917 21ZM25.9167 35.1666L25.0833 34.5416C26.2761 33.2201 27.3891 31.8287 28.4167 30.375L33.7292 29.5416C33.8333 29.75 33.8333 29.9583 33.9375 30.0625C34.3087 31.9492 34.379 33.8829 34.1458 35.7916C33.9995 36.7045 33.5608 37.5452 32.8958 38.1875C31.8542 38.8125 29.0417 37.9791 25.9167 35.1666ZM24.5625 30.5833L23.1042 32.4583L21.4375 30.5833H24.5625ZM10.2917 16C10.8152 17.7174 11.4771 19.3895 12.2708 21C11.4765 22.646 10.8146 24.3528 10.2917 26.1041L9.66667 25.8958C7.84256 25.3201 6.1454 24.4008 4.66667 23.1875C4.28377 22.9455 3.95605 22.6257 3.7048 22.2488C3.45356 21.872 3.2844 21.4465 3.20833 21C3.20833 19.75 5.29167 17.7708 9.25 16.4166L10.2917 16ZM21.4375 11.4166L23 9.6458L24.5625 11.4166H21.4375ZM32.8958 3.81247C34.0417 4.43747 34.6667 7.56247 33.7292 12.1458C33.734 12.2022 33.7272 12.2591 33.7093 12.3128C33.6914 12.3665 33.6627 12.416 33.625 12.4583L28.4167 11.625C27.3891 10.1712 26.2761 8.77988 25.0833 7.4583L25.7083 6.93747C29.0417 4.0208 31.75 3.18747 32.8958 3.81247ZM15.5 14.8541L14.6667 16.2083L13.9375 17.5625C13.625 16.8333 13.4167 16.1041 13.1042 15.2708L15.5 14.8541ZM13.1042 26.7291C13.4167 26 13.625 25.2708 13.9375 24.4375L14.6667 25.7916L15.5 27.1458L13.1042 26.7291ZM30.5 21C29.9699 22.142 29.3788 23.2548 28.7292 24.3333C28.1042 25.4791 27.375 26.5208 26.75 27.5625H19.25C18.5208 26.4166 17.7917 25.375 17.2708 24.3333C16.6161 23.2577 16.0248 22.1447 15.5 21C16.0054 19.8458 16.5974 18.7315 17.2708 17.6666C17.8693 16.5874 18.5301 15.544 19.25 14.5416C21.7457 14.3334 24.2543 14.3334 26.75 14.5416C27.4792 15.5833 28.1042 16.625 28.7292 17.6666C29.4026 18.7315 29.9946 19.8458 30.5 21ZM31.3333 16.2083L30.5 14.8541L32.8958 15.375C32.6639 16.1208 32.3856 16.8514 32.0625 17.5625L31.3333 16.2083ZM30.5 27.1458L31.3333 25.7916L32.0625 24.3333L33 26.7291L30.5 27.1458ZM20.8125 7.35414H20.9167L17.5833 11.5208L12.375 12.3541C12.2708 12.0416 12.2708 11.8333 12.1667 11.5208C11.3333 7.24997 11.9583 4.3333 13 3.81247C13.2766 3.63082 13.61 3.55672 13.9375 3.60414C15.3958 3.60414 17.8958 4.6458 20.7083 7.1458L20.8125 7.35414ZM12.1667 30.5833C12.1857 30.2617 12.256 29.9452 12.375 29.6458L17.6875 30.375C18.689 31.8481 19.8034 33.2412 21.0208 34.5416L20.8125 34.75L20.6042 34.9583C19.184 36.2738 17.5211 37.2999 15.7083 37.9791C15.3107 38.1874 14.875 38.3133 14.4275 38.3491C13.98 38.3849 13.5299 38.3299 13.1042 38.1875C11.9583 37.5625 11.3333 34.75 12.1667 30.5833Z" fill="#7572D5"/>

    </g>
    <g id="figma">
        <path d="M17.7083 4.16663C14.2565 4.16663 11.4583 6.96486 11.4583 10.4166C11.4583 13.8684 14.2565 16.6666 17.7083 16.6666H32.2916C35.7435 16.6666 38.5416 13.8684 38.5416 10.4166C38.5416 6.96486 35.7435 4.16663 32.2916 4.16663H17.7083Z" fill="#7572D5"/>
        <path d="M32.2917 18.75C28.8398 18.75 26.0417 21.5481 26.0417 25C26.0417 28.4519 28.8398 31.25 32.2917 31.25C35.7436 31.25 38.5417 28.4519 38.5417 25C38.5417 21.5481 35.7436 18.75 32.2917 18.75Z" fill="#7572D5"/>
        <path d="M11.4583 25C11.4583 21.5481 14.2565 18.75 17.7083 18.75H23.9583V31.25H17.7083C14.2565 31.25 11.4583 28.4519 11.4583 25Z" fill="#7572D5"/>
        <path d="M17.7083 33.3334C14.2565 33.3334 11.4583 36.1315 11.4583 39.5834C11.4583 43.0352 14.2565 45.8334 17.7083 45.8334C21.1602 45.8334 23.9583 43.0352 23.9583 39.5834V33.3334H17.7083Z" fill="#7572D5"/>

    </g>
    <g id="typescript">
        <path d="M5 25V45H45V5H5V25ZM37.235 23.4067C38.2517 23.66 39.025 24.1117 39.7367 24.8483C40.105 25.2417 40.6517 25.9583 40.695 26.1317C40.7083 26.1817 38.9683 27.3483 37.915 28.0033C37.8767 28.0283 37.7233 27.8633 37.5533 27.61C37.0367 26.86 36.4983 26.5367 35.6733 26.48C34.46 26.3967 33.68 27.0317 33.6867 28.0917C33.6756 28.3523 33.7343 28.6112 33.8567 28.8417C34.1233 29.3933 34.62 29.725 36.1733 30.3967C39.0383 31.63 40.2633 32.4417 41.025 33.5967C41.875 34.885 42.0667 36.9433 41.4883 38.4733C40.855 40.1367 39.28 41.2667 37.0633 41.64C36.3783 41.7617 34.7533 41.7433 34.0167 41.61C32.41 41.3233 30.8867 40.53 29.9467 39.4883C29.5783 39.0833 28.86 38.0217 28.905 37.9467C28.9233 37.92 29.0883 37.8183 29.2717 37.7117C29.4517 37.61 30.1233 37.2217 30.7583 36.8533L31.9083 36.1867L32.15 36.5433C32.4867 37.0567 33.2217 37.7617 33.6667 37.9967C34.9433 38.67 36.695 38.575 37.5583 37.8C37.7319 37.6538 37.8694 37.4693 37.9599 37.2612C38.0504 37.053 38.0915 36.8267 38.08 36.6C38.08 36.1367 38.0217 35.9333 37.78 35.5833C37.47 35.14 36.835 34.7667 35.0317 33.9833C32.9683 33.095 32.08 32.5433 31.2667 31.6667C30.759 31.0881 30.3841 30.4055 30.1683 29.6667C30.0167 29.1017 29.9783 27.685 30.0983 27.115C30.5233 25.12 32.0283 23.7317 34.2 23.3183C34.905 23.185 36.5433 23.235 37.235 23.4067ZM27.845 25.0767L27.8583 26.715H22.65V41.5083H18.9667V26.715H13.7633V25.1083C13.7633 24.2183 13.7817 23.475 13.8067 23.4583C13.8267 23.4317 16.995 23.4183 20.835 23.425L27.8267 23.445L27.845 25.0767Z" fill="#7572D5"/>

    </g>
    <g id="vector">
        <path d="M31.2591 0.25L30.9888 1.64963C30.5708 4.30212 30.7221 5.06099 31.8682 6.04539L32.9747 6.95461L31.8286 12.0305C31.1438 15.0588 30.3041 17.5968 29.7707 18.4308C29.313 19.1503 28.7796 20.2099 28.6642 20.7791C28.4732 21.4592 27.8245 22.1429 26.8334 22.7478C25.9576 23.2418 24.2385 24.5663 23.0203 25.6294C22.0472 26.4993 21.3769 27.0326 21.0129 27.2617L19.8235 28.196C19.4415 28.8046 19.2253 29.295 19.1424 29.6672C19.0595 30.0503 19.1063 30.3044 19.2289 30.4905C19.3478 30.6695 19.5532 30.7948 19.8343 30.8736C20.1671 30.951 20.5097 30.9788 20.8507 30.9559C21.6222 30.9035 22.3858 30.7691 23.1284 30.555C23.3807 30.487 23.5789 30.4225 23.7519 30.3653C24.0186 30.0395 24.6349 29.4238 25.7269 28.3535C28.6246 25.5149 29.731 23.9613 28.5885 24.3802C28.1669 24.5305 28.3579 24.1511 29.0823 23.3922C30.6104 21.9138 31.4862 19.6801 33.317 12.6748C34.7659 7.14433 34.7659 7.06558 35.8327 7.06558C36.3336 7.06558 37.75 7.15149 37.75 7.15149V0.25H34.4992H31.2591ZM18.4216 12.0806C17.3692 12.0735 15.1058 13.6664 8.33025 19.1611C8.03832 19.8519 8.01309 20.328 8.14644 20.6359C8.23294 20.8471 8.39152 20.9938 8.61137 21.1012C8.82761 21.2086 9.10873 21.2731 9.41867 21.2981C10.035 21.3518 10.763 21.2552 11.3504 21.1406L11.7469 21.0511C11.8826 20.8704 12.0608 20.7254 12.2659 20.6287C12.6839 20.3996 14.4391 18.8103 16.1943 17.1064C19.2829 13.9993 20.0073 12.5961 18.7495 12.1415C18.6463 12.1007 18.5326 12.08 18.4216 12.0806ZM26.336 14.2391C25.4098 14.2642 23.7411 15.3309 20.8831 17.5968C19.4487 18.753 18.5405 19.3759 18.0539 19.5047L16.1654 20.9867C15.4554 22.2753 15.3509 23.0736 15.5383 23.5139C15.5852 23.6225 15.6533 23.7208 15.7387 23.8031C15.8241 23.8855 15.925 23.9502 16.0357 23.9936C16.311 24.1015 16.6046 24.1562 16.9006 24.1546C17.608 24.1471 18.3112 24.0448 18.991 23.8504C19.3453 23.7559 19.6952 23.6461 20.0398 23.521L20.1443 23.4781L20.3353 23.3779C20.6957 22.9161 21.5246 22.0462 22.5626 21.044C25.8423 17.9011 27.5181 15.6674 27.1758 14.8333C27.0208 14.4288 26.7541 14.2248 26.336 14.2391ZM17.5998 18.1051C17.3331 18.1337 16.7349 18.5919 15.6573 19.5298C14.1003 20.8972 12.4028 21.6847 11.8154 21.3339C11.6788 21.3645 11.5419 21.3932 11.4045 21.4198C10.8062 21.5379 10.0602 21.6346 9.39344 21.5809C9.07929 21.562 8.77137 21.4855 8.48523 21.3554C8.21533 21.2328 7.99994 21.0164 7.87975 20.7468C7.7464 20.4247 7.7464 20.0238 7.89777 19.5119L5.55514 21.4234L0.253605 25.7798V32.8424L17.6251 19.2506C17.6217 19.1018 17.6411 18.9533 17.6827 18.8103C17.8161 18.3306 17.8089 18.0872 17.5998 18.1087V18.1051ZM25.0746 20.3925C24.8115 20.3925 24.3718 20.7612 23.669 21.5021C22.714 22.5152 21.2111 23.496 20.4146 23.6964L20.292 23.7609C20.1613 23.8145 20.0291 23.8646 19.8956 23.9112C19.6794 23.9828 19.3982 24.0687 19.0739 24.1546C18.4252 24.33 17.6179 24.4911 16.897 24.4732C16.5572 24.4728 16.2207 24.4072 15.9059 24.2799C15.6093 24.1585 15.3716 23.9275 15.2428 23.6356C15.0338 23.138 15.1167 22.44 15.5744 21.4485L0.25 33.4366V37.75H6.98234L21.2615 26.6103C21.6327 26.2022 22.1914 25.6438 22.9446 24.9457C24.9629 23.0879 25.4206 22.4472 25.4206 21.4986C25.4206 20.7612 25.3377 20.3889 25.0746 20.3889V20.3925ZM28.4732 27.3727L27.2514 28.5826C26.5667 29.2269 25.3449 30.0216 24.5088 30.3617L24.343 30.4333L24.3322 30.4512L24.2961 30.487C24.2637 30.512 24.2493 30.5156 24.2241 30.5263C23.8903 30.6518 23.5512 30.7629 23.2077 30.8592C22.4441 31.08 21.6586 31.218 20.8651 31.2709C20.4899 31.2948 20.1132 31.2622 19.7478 31.1743C19.4307 31.1049 19.1508 30.9213 18.9622 30.6588C18.7892 30.3939 18.7387 30.0395 18.836 29.6028C18.9134 29.2919 19.0284 28.9914 19.1784 28.7079L7.6563 37.75H22.9807L24.8115 35.6667C27.3271 32.7529 28.4732 30.6695 28.4732 28.8869V27.3727Z" fill="#7572D5"/>

    </g>

<!--    socials-->
    <g id="instagram">
        <rect width="35" height="35" rx="17.5" fill="white" fill-opacity="0.1"/>
        <path d="M22.6516 9.09998H12.3484C10.5569 9.09998 9.1 10.5563 9.1 12.3471V15.778V22.6528C9.1 24.4437 10.5569 25.9 12.3484 25.9H22.6516C24.4431 25.9 25.9 24.4437 25.9 22.6528V15.7714V12.3406C25.8934 10.5563 24.4366 9.09998 22.6516 9.09998ZM23.5834 11.0352H23.9575V11.4025V13.8822L21.1159 13.8887L21.1094 11.0417L23.5834 11.0352ZM15.0981 15.7714C15.6362 15.0302 16.5091 14.5382 17.4934 14.5382C18.4778 14.5382 19.3506 15.0236 19.8887 15.7714C20.2431 16.2569 20.4466 16.8538 20.4466 17.4967C20.4466 19.1236 19.1209 20.4552 17.4869 20.4552C15.8528 20.4552 14.5403 19.1236 14.5403 17.4967C14.5403 16.8538 14.7503 16.2569 15.0981 15.7714ZM24.2594 22.6462C24.2594 23.5318 23.5375 24.2534 22.6516 24.2534H12.3484C11.4625 24.2534 10.7406 23.5318 10.7406 22.6462V15.7714H13.2475C13.0309 16.3028 12.9062 16.8866 12.9062 17.4967C12.9062 20.0288 14.9669 22.0887 17.5 22.0887C20.0331 22.0887 22.0937 20.0288 22.0937 17.4967C22.0937 16.8866 21.9691 16.3028 21.7525 15.7714H24.2594V22.6462Z" fill="#7572D5"/>

    </g>
    <g id="telegram">
        <rect width="35" height="35" rx="17.5" fill="#7572D5"/>
        <path d="M25.9057 11.7645L23.3705 23.7208C23.1791 24.5644 22.6804 24.7745 21.9717 24.3772L18.1085 21.5305L16.2447 23.3235C16.0383 23.5299 15.8661 23.7022 15.4682 23.7022L15.7461 19.7681L22.9054 13.2989C23.2169 13.0216 22.8376 12.8674 22.4218 13.1452L13.5708 18.7186L9.76043 17.5257C8.93174 17.2671 8.91674 16.697 9.93325 16.2992L24.837 10.5572C25.5271 10.2985 26.1308 10.7102 25.9057 11.7645Z" fill="#1F1F20"/>

    </g>
    <g id="vk">
        <rect width="35" height="35" rx="17.5" fill="white" fill-opacity="0.1"/>
        <path d="M25.1696 20.9941C24.8038 20.5391 24.3881 20.1314 23.9861 19.737C23.8432 19.5968 23.6954 19.4518 23.5529 19.3076C23.1439 18.8932 23.129 18.7375 23.4529 18.2668C23.6769 17.9424 23.9145 17.6175 24.1442 17.3033C24.3526 17.0183 24.568 16.7235 24.7746 16.4278L24.817 16.367C25.2117 15.801 25.6199 15.2158 25.8372 14.5099C25.8936 14.3236 25.9528 14.0495 25.8174 13.8204C25.682 13.5914 25.4195 13.5215 25.2337 13.4889C25.1418 13.4727 25.0506 13.4705 24.9659 13.4705L22.3809 13.4686L22.3595 13.4684C21.9687 13.4684 21.7053 13.6593 21.5544 14.0519C21.4103 14.4271 21.252 14.8267 21.0714 15.2065C20.7119 15.963 20.2554 16.8342 19.5948 17.5609L19.5669 17.5918C19.4889 17.6787 19.4005 17.777 19.3359 17.777C19.326 17.777 19.3152 17.7751 19.303 17.7711C19.1662 17.7159 19.0744 17.3726 19.0785 17.213C19.0786 17.2108 19.0786 17.2086 19.0786 17.2064L19.0768 14.1105C19.0768 14.0998 19.0761 14.0891 19.0747 14.0785C19.009 13.5752 18.8633 13.2619 18.3129 13.1503C18.2983 13.1472 18.2834 13.1458 18.2685 13.1458H15.5806C15.1427 13.1458 14.9014 13.3302 14.6746 13.6062C14.6133 13.68 14.4859 13.8336 14.5491 14.02C14.6132 14.2091 14.8212 14.2495 14.8889 14.2627C15.2252 14.329 15.4148 14.5421 15.4685 14.9145C15.5622 15.5612 15.5737 16.2514 15.5047 17.0868C15.4855 17.3189 15.4474 17.4982 15.3847 17.6514C15.3701 17.6872 15.3185 17.8038 15.2658 17.8039C15.2491 17.8039 15.2007 17.7971 15.1125 17.7341C14.904 17.5861 14.7514 17.3749 14.5736 17.114C13.9685 16.228 13.4607 15.2519 13.021 14.1294C12.8579 13.7161 12.5533 13.4848 12.1629 13.478C11.7339 13.4712 11.345 13.468 10.9741 13.468C10.5689 13.468 10.1931 13.4719 9.82625 13.4798C9.51217 13.4855 9.29492 13.5831 9.18061 13.77C9.06611 13.957 9.07356 14.2026 9.20276 14.5C10.237 16.8825 11.1748 18.6149 12.2434 20.1171C12.9923 21.1683 13.7433 21.8959 14.6069 22.4068C15.5166 22.9461 16.5362 23.2083 17.7237 23.2083C17.8583 23.2083 17.9975 23.2048 18.1379 23.198C18.8279 23.1632 19.0839 22.9044 19.1163 22.2082C19.1317 21.8525 19.1692 21.4793 19.338 21.1611C19.4445 20.9606 19.5439 20.9606 19.5765 20.9606C19.6394 20.9606 19.7174 20.9906 19.8011 21.0468C19.9513 21.1484 20.0801 21.2845 20.1857 21.4034C20.285 21.5163 20.3833 21.6304 20.4817 21.7446C20.6939 21.9909 20.9134 22.2456 21.1427 22.4871C21.6445 23.0162 22.1973 23.2488 22.8323 23.1983H25.2023C25.2073 23.1983 25.2124 23.1981 25.2175 23.1978C25.4536 23.1817 25.6582 23.0459 25.7786 22.8254C25.9279 22.5522 25.9249 22.2037 25.7706 21.893C25.5956 21.5415 25.3685 21.2413 25.1696 20.9941Z" fill="#7572D5"/>

    </g>
    <g id="linked">
        <rect width="35" height="35" rx="17.5" fill="white" fill-opacity="0.1"/>
        <path d="M12.8064 14.8864H9.53296V25.3626H12.8064V14.8864Z" fill="#7572D5"/>
        <path d="M11.1008 9.94019C9.89376 9.94019 9.10001 10.7208 9.10001 11.7573C9.10001 12.7741 9.86752 13.5744 11.0549 13.5744H11.0811C12.3144 13.5744 13.0819 12.7675 13.0753 11.7573C13.0491 10.7208 12.3078 9.94019 11.1008 9.94019Z" fill="#7572D5"/>
        <path d="M21.7476 14.788C19.8714 14.788 18.6972 15.8113 18.4807 16.5329V14.8864H14.8006C14.8465 15.7588 14.8006 25.3626 14.8006 25.3626H18.4807V19.7014C18.4807 19.3799 18.4676 19.065 18.5594 18.842C18.8087 18.2123 19.3532 17.5563 20.3306 17.5563C21.6098 17.5563 22.1871 18.5271 22.1871 19.9441V25.3626H25.9V19.5374C25.9 16.2968 24.0764 14.788 21.7476 14.788Z" fill="#7572D5"/>

    </g>
</svg>
